<svg xmlns="http://www.w3.org/2000/svg" viewBox="0 0 512 512" style="height: 100px; width: 100px;"><g class="" transform="translate(0,0)" style=""><g><path d="M256 21.313C121.082 21.313 63.78 126.533 63.78 232.688C63.78 338.841 256 493.656 256 493.656C256 493.656 448.22 338.842 448.22 232.687C448.22 126.533 390.917 21.312 256 21.312Z" class="selected" fill="#738d57" fill-opacity="1"></path><path d="M255.937 95.687C256.707 96.287 257.337 96.807 258.094 97.407C304.539 133.75 304.539 192.561 258.094 228.907C257.339 229.523 256.709 230.047 255.938 230.625C255.168 230.027 254.508 229.485 253.75 228.905C207.305 192.561 207.305 133.75 253.75 97.405C254.507 96.79 255.166 96.285 255.938 95.687Z" class="" fill="#ffffff" fill-opacity="1"></path><path d="M255.937 136.407C241.053 136.407 229 148.459 229 163.344C229 178.228 241.053 190.281 255.938 190.281C270.822 190.281 282.875 178.229 282.875 163.345C282.875 148.46 270.822 136.407 255.937 136.407Z" class="" fill="#000000" fill-opacity="1"></path><path d="M135.03 203.093C175.018 202.61 207.52 230.533 213.97 276.155C214.08 277.09 214.204 277.93 214.344 278.905C213.4 279.167 212.701 279.6 211.781 279.935C157.083 301.987 106.161 272.612 97.907 214.218C97.739 213.245 97.641 212.442 97.501 211.468C98.454 211.205 99.181 210.791 100.095 210.436C112.06 205.612 123.835 203.226 135.032 203.092Z" class="" fill="#ffffff" fill-opacity="1"></path><path d="M379.156 203.093C390.352 203.228 402.129 205.613 414.094 210.437C415.008 210.792 415.734 211.207 416.688 211.467C416.548 212.443 416.448 213.247 416.281 214.217C408.029 272.612 357.107 301.987 302.407 279.937C301.487 279.6 300.789 279.167 299.845 278.905C299.985 277.93 300.108 277.09 300.22 276.155C306.668 230.533 339.17 202.61 379.156 203.093Z" class="" fill="#ffffff" fill-opacity="1"></path><path d="M155.219 218.063C146.117 218.265 137.352 223.103 132.469 231.563C125.025 244.453 129.452 260.933 142.343 268.373C155.233 275.816 171.713 271.389 179.155 258.499C186.597 245.609 182.171 229.129 169.28 221.686C164.85 219.128 159.986 217.956 155.22 218.061Z" class="" fill="#000000" fill-opacity="1"></path><path d="M358.969 218.063C354.201 217.955 349.336 219.128 344.905 221.687C332.015 229.129 327.588 245.609 335.03 258.499C342.474 271.389 358.953 275.816 371.844 268.374C384.734 260.932 389.161 244.452 381.719 231.561C376.834 223.101 368.069 218.265 358.969 218.061Z" class="" fill="#000000" fill-opacity="1"></path></g></g></svg>